<svg width="165" height="32" viewBox="0 0 165 32" fill="none" xmlns="http://www.w3.org/2000/svg">
<g id="Logo">
<path id="Vector" d="M105.968 21.1977C105.283 23.9429 104.638 26.3772 104.083 28.8314C103.897 29.6484 103.6 30.0089 102.713 29.903C101.949 29.8104 101.165 29.8832 100.299 29.8832C101.748 25.1832 103.011 20.5428 104.195 15.8859C104.605 14.2685 104.982 12.6445 105.382 11.0239C105.472 10.6633 105.478 10.2962 106.034 10.2201C110.185 9.65455 114.336 9.04598 118.523 9.81001C122.694 10.5707 124.407 13.6169 122.942 17.5661C121.334 21.9022 116.515 24.5813 111.438 23.9628C109.378 23.7114 107.423 23.2484 105.968 21.1977ZM114.101 11.2091C112.546 11.1562 110.975 11.4836 109.398 11.7416C108.792 11.8408 108.448 12.1186 108.296 12.7305C107.903 14.3082 107.407 15.8594 107.049 17.4437C106.58 19.5076 107.344 20.9 109.289 21.7401C113.79 23.6849 119.181 20.7975 119.992 16.0082C120.336 13.9741 119.357 12.3336 117.385 11.6357C116.34 11.2653 115.259 11.1661 114.101 11.2091Z" fill="#2DAA4F"/>
<path id="Vector_2" d="M150.475 21.631C150.885 21.5384 151.017 21.1779 151.226 20.9199C154.093 17.3776 156.951 13.8253 159.799 10.2698C160.03 9.9787 160.239 9.77694 160.655 9.79017C161.582 9.81994 162.508 9.80009 163.695 9.80009C163.129 10.4748 162.723 10.9676 162.306 11.4571C158.003 16.4945 153.634 21.4789 149.417 26.5889C146.602 29.999 143.043 30.7928 138.899 30.1577C137.658 29.9692 138.409 29.1423 138.363 28.6297C138.293 27.9053 138.872 28.2691 139.18 28.3353C142.871 29.1324 145.997 27.7069 147.885 24.3795C148.143 23.9297 147.978 23.5692 147.859 23.1657C146.638 18.9949 145.441 14.8176 144.191 10.6534C143.992 9.98862 144.029 9.74056 144.789 9.79017C145.686 9.8497 146.754 9.54541 147.432 9.9357C148.087 10.3128 147.865 11.4902 148.08 12.3039C148.901 15.403 149.678 18.512 150.475 21.631Z" fill="#2DAA4F"/>
<path id="Vector_3" d="M33.5483 11.8541C33.7699 10.7791 34.1304 10.0779 35.4997 9.92579C38.9262 9.54543 42.333 9.09892 45.7595 9.81334C48.3956 10.3624 49.0604 11.3877 48.3592 13.9279C47.5125 16.984 46.5368 20.007 45.8356 23.1028C45.7628 23.4237 45.7231 23.728 45.3031 23.7313C44.4034 23.7346 43.5005 23.7809 42.6042 23.718C41.8567 23.6651 42.3197 23.1161 42.3925 22.8548C43.0077 20.6983 43.6692 18.555 44.3208 16.4085C44.3869 16.1869 44.4961 15.9719 44.3406 15.704C41.7277 16.8848 38.8402 16.9708 36.1149 17.7315C35.0962 18.0159 34.0973 18.3367 33.234 18.9652C32.6023 19.4249 32.1823 20.0434 32.3179 20.8504C32.4502 21.6244 33.0521 22.0081 33.7699 22.2032C35.503 22.6729 37.256 22.5009 39.0056 22.3024C39.429 22.2528 39.849 22.1734 40.2955 22.104C39.9494 23.1491 39.2482 23.7368 38.192 23.8669C35.966 24.1381 33.75 24.148 31.5538 23.6221C30.2408 23.3079 29.2221 22.62 28.9905 21.2308C28.7689 19.9078 29.4635 18.8957 30.4855 18.1416C32.3576 16.7558 34.5967 16.3489 36.8127 15.8925C38.7972 15.4857 40.8247 15.3005 42.7795 14.7349C44.3274 14.2884 45.2469 13.4251 45.1443 12.5255C45.0484 11.7052 44.0099 11.09 42.3925 10.9974C39.6803 10.8354 37.0112 11.1264 34.3817 11.7978C34.1171 11.864 33.8625 11.9731 33.5549 11.8541H33.5483Z" fill="#F5F5F5"/>
<path id="Vector_4" d="M97.6376 15.5783C95.1206 16.7822 92.5871 16.9046 90.1726 17.4933C89.0712 17.7612 87.9731 18.0258 86.9676 18.5517C86.0349 19.0412 85.1518 19.7027 85.3966 20.8769C85.6413 22.0511 86.7295 22.3157 87.7681 22.4116C89.2895 22.5505 90.8143 22.5637 92.3225 22.2462C92.6632 22.1768 93.0137 22.1569 93.4239 22.1073C93.0799 23.2583 92.5309 23.8437 91.2442 23.9132C89.0084 24.0323 86.799 24.1513 84.6028 23.6221C83.3393 23.3178 82.3339 22.6663 82.0726 21.3333C81.8013 19.9607 82.4959 18.9156 83.5609 18.1317C85.4363 16.7525 87.6788 16.3489 89.8915 15.8892C91.8363 15.4857 93.8274 15.3137 95.7424 14.7547C97.3829 14.2751 98.3355 13.4185 98.2131 12.5123C98.1007 11.6854 96.9695 11.0735 95.3191 10.9908C92.6466 10.8552 90.0139 11.143 87.4241 11.8011C87.1661 11.8673 86.9015 11.8938 86.6137 11.9434C86.7725 10.6898 87.3083 10.0713 88.6446 9.91918C92.0711 9.52559 95.4811 9.10223 98.9077 9.82988C101.448 10.369 102.116 11.434 101.435 13.8981C100.588 16.9542 99.589 19.974 98.9242 23.0764C98.8085 23.6188 98.5637 23.7908 98.0511 23.7412C97.7402 23.7114 97.4259 23.7147 97.1117 23.7114C95.1967 23.6949 95.2198 23.7015 95.802 21.8096C96.4138 19.8185 96.9827 17.8175 97.6409 15.575L97.6376 15.5783Z" fill="#F5F5F5"/>
<path id="Vector_5" d="M64.5858 21.5781C60.9111 24.3531 56.8264 24.5151 52.6226 23.503C50.2346 22.9275 49.4838 21.4656 50.0956 19.0975C50.8497 16.1736 51.8321 13.3126 52.4638 10.3557C52.5432 9.97538 52.7119 9.75048 53.1716 9.76371C54.1407 9.79678 55.1098 9.77363 56.1219 9.77363C55.2917 12.5883 54.4648 15.2872 53.7041 18.0027C52.9963 20.5296 53.7835 21.6376 56.4163 21.9551C58.1825 22.1701 59.9222 22.0907 61.6222 21.5119C63.6795 20.8107 65.0786 19.4514 65.7996 17.4239C66.5802 15.231 67.1391 12.972 67.6452 10.7096C67.8205 9.91916 68.1413 9.70748 68.8987 9.77032C69.7058 9.83978 70.526 9.78686 71.4124 9.78686C70.0597 14.2983 68.7036 18.7006 67.6915 23.1921C67.589 23.6453 67.3707 23.7643 66.9705 23.7379C66.8911 23.7312 66.815 23.7379 66.7356 23.7379C65.9948 23.7312 65.072 23.9925 64.5527 23.6519C63.868 23.2021 64.8669 22.3454 64.5858 21.5814V21.5781Z" fill="#F5F5F5"/>
<path id="Vector_6" d="M134.128 22.2363C133.85 23.2748 133.318 23.8206 132.11 23.8801C130.229 23.9727 128.36 24.0951 126.491 23.8074C125.916 23.718 125.333 23.5957 124.794 23.384C122.704 22.5538 122.218 20.4502 123.706 18.7601C124.616 17.7282 125.849 17.2254 127.116 16.8021C129.61 15.9686 132.223 15.6808 134.79 15.1913C135.825 14.9929 136.873 14.8275 137.799 14.2818C138.491 13.8749 139.182 13.3921 139.026 12.4825C138.884 11.6424 138.143 11.3414 137.389 11.186C135.011 10.6998 132.64 10.961 130.278 11.3414C129.326 11.4936 128.386 11.7251 127.444 11.9202C127.586 10.5675 128.277 10.0713 129.58 9.92249C132.894 9.53882 136.195 9.18161 139.506 9.81334C142.235 10.3359 142.857 11.3315 142.165 13.9742C141.381 16.9774 140.356 19.9144 139.728 22.9573C139.618 23.4799 139.403 23.761 138.788 23.7015C138.13 23.6387 137.455 23.6486 136.794 23.7015C136.056 23.7577 136.073 23.4634 136.255 22.8978C136.999 20.5395 137.703 18.1681 138.494 15.5651C135.626 16.8517 132.712 16.9476 129.957 17.7183C128.935 18.0027 127.936 18.3301 127.073 18.9619C126.438 19.4249 126.031 20.0434 126.167 20.8571C126.296 21.6476 126.908 22.0213 127.609 22.2264C129.382 22.7423 131.174 22.5373 132.964 22.3223C133.344 22.276 133.711 22.0941 134.125 22.2363H134.128Z" fill="#2DAA4F"/>
<path id="Vector_7" d="M77.3296 11.6788C79.3008 9.92249 81.4639 9.41313 83.7759 9.42305C85.0956 9.42636 85.2179 9.63804 84.993 10.9114C84.9004 11.4373 84.7946 11.6821 84.1099 11.5729C80.0119 10.9247 77.0881 12.7537 75.9404 16.7095C75.3583 18.7105 74.9151 20.7545 74.4686 22.7953C74.3098 23.5262 74.0221 23.9066 73.2349 23.7346C72.4212 23.556 71.2702 24.1679 70.87 23.4799C70.5856 22.9904 71.2074 21.9783 71.4257 21.201C72.4014 17.7414 73.4234 14.2884 74.0849 10.7527C74.2404 9.9291 74.5777 9.6182 75.3881 9.78688C75.5369 9.81665 75.699 9.79019 75.8577 9.79019C76.9801 9.79019 77.4707 10.4219 77.3296 11.6854V11.6788Z" fill="#F5F5F5"/>
<path id="Vector_8" d="M3.10158 23.2947C0.65734 19.4944 0.144679 15.5121 2.10933 11.3679C4.19636 6.9722 8.74416 4.48827 13.7219 4.9414C18.2631 5.35484 22.3148 8.85747 23.5254 13.4218C24.8682 18.4856 22.7646 23.7214 18.3227 26.3673C13.8509 29.0332 8.41672 28.4147 4.4808 24.7897C4.30881 24.6309 4.13682 24.4722 3.96483 24.3134C3.67708 23.976 3.38933 23.6354 3.09827 23.298L3.10158 23.2947ZM18.6865 16.0579C19.8077 17.8671 20.9257 19.6763 22.1131 21.5946C23.3732 19.1603 23.6147 16.7955 23.2211 14.3413C23.1549 14.1561 23.0921 13.9709 23.0259 13.7823C22.252 9.86626 18.6832 6.39008 14.6513 5.62936C10.1333 4.77272 5.75749 6.60507 3.27688 10.3921C0.819407 14.1428 0.82933 18.9354 3.30003 22.4149C3.53155 23.0135 3.93837 23.4799 4.4345 23.8735C9.23036 29.4102 18.2731 28.16 21.5012 22.4314C20.5751 22.352 19.8761 21.8978 19.4042 21.0687C18.5674 19.587 17.7339 18.1052 16.9004 16.6235C17.4561 16.3126 18.0018 15.9686 18.6865 16.0579Z" fill="#F5F5F5"/>
<path id="Vector_9" d="M3.10202 23.2947C3.38977 23.632 3.67752 23.9727 3.96858 24.3101C3.49231 24.7599 3.01603 25.2064 2.41406 25.7753C2.49013 24.793 2.83742 24.0554 3.10533 23.2947H3.10202Z" fill="#2DAA4F"/>
<path id="Vector_10" d="M16.9012 16.6268C12.36 18.3897 8.05365 20.5462 4.43525 23.8735C3.93913 23.4799 3.53231 23.0136 3.30078 22.4149C3.95566 21.1614 4.22688 19.7391 5.11329 18.3169V20.9728C5.26543 20.9662 5.36135 20.9894 5.41096 20.953C8.63908 18.4525 12.3369 16.855 16.1206 15.4162C16.7623 15.36 17.3709 15.188 17.9298 14.8639C19.6299 14.5034 21.3299 14.1429 23.03 13.7856C23.0961 13.9709 23.159 14.1561 23.2251 14.3446C21.6805 14.8275 20.0731 15.1483 18.6905 16.0612C18.0059 15.9752 17.4602 16.3159 16.9045 16.6268H16.9012Z" fill="#2DAA4F"/>
<path id="Vector_11" d="M17.9262 14.8639C17.3672 15.1913 16.7586 15.36 16.117 15.4162C14.9296 13.3821 13.7389 11.348 12.439 9.12204C10.1436 12.876 7.94415 16.4713 5.57599 20.3378C5.55945 18.4988 5.43707 17.0567 6.4194 15.6345C8.53288 12.5718 10.4645 9.38664 12.5879 6.06592C14.4169 9.08235 16.1699 11.9731 17.9229 14.8605L17.9262 14.8639Z" fill="#F5F5F5"/>
</g>
</svg>
